<svg aria-hidden="true" style="position: absolute; width: 0; height: 0; overflow: hidden;" version="1.1" xmlns="http://www.w3.org/2000/svg" xmlns:xlink="http://www.w3.org/1999/xlink">
<defs>
<symbol id="envelope-black" viewBox="0 0 43 32">
<path d="M37.342 0.006h-32.008c-2.201 0-3.982 1.8-3.982 4.001l-0.019 24.006c0 2.201 1.8 4.001 4.001 4.001h32.008c2.201 0 4.001-1.8 4.001-4.001v-24.006c0-2.201-1.8-4.001-4.001-4.001zM36.542 8.51l-14.142 8.84c-0.302 0.188-0.668 0.3-1.060 0.3s-0.759-0.112-1.069-0.305l0.009 0.005-14.145-8.842c-0.504-0.301-0.836-0.843-0.836-1.463 0-0.938 0.761-1.699 1.699-1.699 0.349 0 0.673 0.105 0.943 0.286l-0.006-0.004 13.403 8.383 13.403-8.383c0.264-0.176 0.588-0.282 0.937-0.282 0.938 0 1.699 0.761 1.699 1.699 0 0.62-0.332 1.162-0.828 1.459l-0.008 0.004z"></path>
</symbol>
<symbol id="tel" viewBox="0 0 32 32">
<path d="M27.45 20.876l-4.206-0.481c-0.116-0.014-0.25-0.023-0.386-0.023-0.91 0-1.734 0.369-2.33 0.965l-3.048 3.048c-4.723-2.438-8.476-6.192-10.847-10.776l-0.065-0.139 3.066-3.059c0.597-0.596 0.965-1.42 0.965-2.33 0-0.136-0.008-0.27-0.024-0.402l0.002 0.016-0.481-4.174c-0.199-1.657-1.597-2.929-3.291-2.929-0.001 0-0.003 0-0.004 0h-2.865c-1.872-0.005-3.428 1.551-3.313 3.421 0.879 14.142 12.19 25.436 26.315 26.315 1.869 0.114 3.428-1.442 3.428-3.313v-2.865c0-0.005 0-0.010 0-0.016 0-1.683-1.267-3.071-2.9-3.259l-0.015-0.001z"></path>
</symbol>
<symbol id="person" viewBox="0 0 32 32">
<path d="M16.010 16.010c4.421 0 8.005-3.584 8.005-8.005s-3.584-8.005-8.005-8.005v0c-4.421 0-8.005 3.584-8.005 8.005s3.584 8.005 8.005 8.005v0zM16.010 20.013c-5.342 0-16.010 2.682-16.010 8.005v2.001c0 1.099 0.902 2.001 2.001 2.001h28.018c1.099 0 2.001-0.902 2.001-2.001v-2.001c0-5.323-10.668-8.005-16.010-8.005z"></path>
</symbol>
<symbol id="close" viewBox="0 0 32 32">
<path d="M26.667 7.303l-1.97-1.97-7.808 7.808-7.808-7.808-1.97 1.97 7.808 7.808-7.808 7.808 1.97 1.97 7.808-7.808 7.808 7.808 1.97-1.97-7.808-7.808 7.808-7.808z"></path>
</symbol>
<symbol id="square" viewBox="0 0 34 32">
<path d="M30.348 3.553v24.894h-26.554v-24.894h26.554zM30.348-0.004h-26.554c-2.087 0-3.794 1.6-3.794 3.557v24.894c0 1.957 1.707 3.557 3.794 3.557h26.554c2.087 0 3.794-1.6 3.794-3.557v-24.894c0-1.957-1.707-3.557-3.794-3.557z"></path>
</symbol>
<symbol id="check" viewBox="0 0 32 32">
<path fill="#fff" style="fill: var(--color1, #fff); stroke: var(--color1, #fff)" stroke="#fff" stroke-linejoin="miter" stroke-linecap="butt" stroke-miterlimit="4" stroke-width="0.4267" d="M6.308 16.538l-0.147-0.141-0.147 0.139-2.057 1.95 0.162 0.156 7.605 7.253 0.147-0.141 16.171-15.426-0.162-0.154-2.029-1.935-0.147 0.141-13.98 13.325-5.417-5.167z"></path>
</symbol>
<symbol id="send" viewBox="0 0 32 32">
<path fill="#fff" style="fill: var(--color1, #fff)" d="M32.021 0l-32.021 18.012 10.233 3.789 15.784-14.796-12.005 16.197 0.009 0.003-0.012-0.003v8.819l5.738-6.695 7.271 2.692 5.002-28.018z"></path>
</symbol>
</defs>
</svg>
